<svg width="55" height="63" viewBox="0 0 55 63" fill="none" xmlns="http://www.w3.org/2000/svg">
<g clip-path="url(#clip0_146_634)">
<path d="M12.2168 31.1224C17.5471 28.5086 23.7068 25.5195 24.7655 16.2006C24.7716 16.0136 24.8268 15.8347 24.922 15.6937C25.0172 15.5527 25.1467 15.4581 25.289 15.4255C25.4313 15.3929 25.5778 15.4243 25.7043 15.5145C25.8307 15.6047 25.9294 15.7483 25.9841 15.9214C29.8411 25.9534 32.8002 28.9147 41.7496 31.7573C41.8817 31.8068 41.9976 31.9107 42.0799 32.0533C42.1622 32.1959 42.2064 32.3696 42.2057 32.5478C42.205 32.7261 42.1595 32.8993 42.0761 33.0413C41.9927 33.1833 41.8759 33.2863 41.7435 33.3348C32.7676 37.3384 30.6847 40.7377 25.6039 51.2399C25.5355 51.3786 25.4365 51.4875 25.3199 51.5525C25.2032 51.6175 25.0743 51.6357 24.9497 51.6046C24.8252 51.5735 24.7108 51.4946 24.6214 51.3782C24.532 51.2617 24.4718 51.1131 24.4484 50.9515C23.8366 46.9614 22.38 43.2726 20.2416 40.2975C18.1032 37.3223 15.3671 35.1781 12.3392 34.1044C12.0946 34.0155 11.8777 33.8297 11.719 33.5729C11.5603 33.316 11.4677 33.0011 11.4542 32.6723C11.4407 32.3435 11.507 32.0172 11.6437 31.7393C11.7805 31.4613 11.9809 31.2456 12.2168 31.1224Z" fill="#F7AA00"/>
<path d="M0.266808 51.121C5.39463 50.1671 7.50393 47.9842 7.68438 41.0798C7.69972 41.0037 7.73421 40.9363 7.78233 40.8883C7.83045 40.8403 7.88947 40.8143 7.95015 40.8146C8.01083 40.8148 8.06969 40.8412 8.11744 40.8896C8.16519 40.938 8.1991 41.0056 8.21386 41.0818C9.89439 48.1926 11.2362 50.1454 17.3993 50.9217C17.458 50.9415 17.5099 50.986 17.5469 51.0482C17.5838 51.1105 17.6037 51.187 17.6034 51.2656C17.6031 51.3442 17.5826 51.4205 17.5452 51.4825C17.5077 51.5445 17.4555 51.5885 17.3966 51.6078C11.1393 53.1328 10.0388 55.0319 7.90844 62.637C7.89309 62.7131 7.85861 62.7805 7.81048 62.8285C7.76236 62.8765 7.7033 62.9025 7.64262 62.9023C7.58194 62.902 7.52312 62.8756 7.47538 62.8272C7.42763 62.7788 7.39366 62.7112 7.37891 62.6349C7.21929 55.3308 5.38468 52.7343 0.245943 52.0947C0.196602 52.0931 0.148029 52.0789 0.102968 52.0529C0.0579077 52.0269 0.0172167 51.9897 -0.0167043 51.9433C-0.0506252 51.8969 -0.0771227 51.8424 -0.0947397 51.7827C-0.112357 51.723 -0.120717 51.6593 -0.119348 51.5954C-0.117979 51.5315 -0.106928 51.4684 -0.0867819 51.41C-0.0666354 51.3516 -0.0378035 51.2988 -0.00194658 51.2548C0.0339104 51.2107 0.0760834 51.1762 0.122192 51.1533C0.1683 51.1303 0.217468 51.1194 0.266808 51.121Z" fill="#F7AA00"/>
</g>
<defs>
<clipPath id="clip0_146_634">
<rect width="61.8579" height="54.435" fill="white" transform="translate(0 62.6729) rotate(-89.7783)"/>
</clipPath>
</defs>
</svg>
