<svg id="Layer_1" data-name="Layer 1" xmlns="http://www.w3.org/2000/svg" viewBox="0 0 435.28 150.04"><defs><style>.cls-1{fill:#f7aa05;}.cls-2{fill:#2c8b5a;}</style></defs><path class="cls-1" d="M46.5,282.71c.53-8.57,0-6.29,3.38-17.24.87-2.81,1.3-6.23,5.44-6.77,4.61-.6,4.09,2.94,4.81,5.25,1,3.16,3.2,5.43,7.58,4.72s5.13-4,5-6.88a37,37,0,0,0-7.24-19.61c-5.61-7.86-10.8-15.92-16.83-23.56-9-11.4-6-22.11,1.74-32.77,3.83-5.29,9.55-7.7,17.11-6.27,7.8,1.48,14.85,4.57,17,11.06,1.85,5.59,1.4,11.64-3.68,16.53-1.39,1.33-3.46,2.52-6,1.41-2.3-1-2.66-2.71-2.23-4.65,1-4.43,1.75-10-6.19-9.07-6.33.74-6.2,6.34-5.21,10.87,1.66,7.49,7.08,13.4,13.37,18.59,25.31,20.89,24,53.22,16.39,68.8-3.39,6.91-10.12,14.43-19,14.57-6.13.09-11.81.1-18.54-2.47C46,302.37,46.63,289.32,46.5,282.71Z" transform="translate(-43.09 -157.68)"/><path class="cls-1" d="M115.88,266.51c-16.77,8.69-13.46,23.72,5.77,12-13.29,15.89-1.29,22.62,9.08,5.11-5.14,20.51,13.55,20.79,13.37,1.14,4,19.65,14.11,17.1,8.7-1.59,12,17,20.76,8.63,10.47-8.49,12.1,10.85,22.56-1.84,6.78-9.64,20.28-1.2,19.83-10.65,3.93-18.81,18.13-3.5,15.46-15.63-1.81-10.91,16.17-17.95,1.36-27.63-11.29-12.38,4.82-22.64-4.09-21-12.17-4.47.13-22.16-13.65-25.48-13.37-1.78-7.87-19.82-17.17-17.34-10.3,3.86-15.69-15.26-22.62-4.11-10.34,11.94-17.48-11.76-21.64,3.91-2.6,9.78-20.06,1.61-19.31,9.54.39,12.29C95,260.43,100.89,268.32,115.88,266.51Z" transform="translate(-43.09 -157.68)"/><path class="cls-2" d="M141.07,227.82c10-.42,20,5.42,22.66,19.9,2.58,14.24-6,27-19,27.68-13.64.68-24.67-6-23.84-25.91C121.58,232,137.37,228,141.07,227.82Z" transform="translate(-43.09 -157.68)"/><path class="cls-1" d="M231.05,289.28c-3.63,10-23.06,15.87-36.75,11.29-6-2-5.92-5.46-5.26-9,2.64-14.29,2.42-28.67,3.34-43,.73-11.21-.16-22.19-4.45-33.11-4.1-10.41,2-14.87,17.54-14.49,9.63.24,10.21,2.34,6.82,8.12-11.6,19.8-8.68,40.19-3.35,60.53.2.77,1.34,1.42,2.06,2.14,7.62-3.52,6.76-8.41,6.73-13,0-5-.7-10-.56-14.94.07-2.5-.5-6.49,3.86-6.74,5.37-.31,5.66,3.94,6.28,6.61,1.6,6.93,2.47,13.94,3.63,20.92C231.84,272.81,235.46,281,231.05,289.28Z" transform="translate(-43.09 -157.68)"/><path class="cls-1" d="M248.55,258.35c2.94-10.84,1.79-32.14,4.07-39.26a86.63,86.63,0,0,1,2.78-8.63c2.46-5.65,7.86-6.16,14.91-4.13,6.72,1.94,9,4.57,5.55,9.61-13.71,20.05-16.62,41.48-15.7,63.37.25,5.95.5,11.94-2.66,17.6-2.06,3.67-5.91,5.81-11.83,5.1-6.27-.76-6.56-4.25-5.89-7.57,4.49-22.35-2.56-43.66-11.12-64.9-2.91-7.22-2.15-14.72-1.39-22.14.53-5.3,4-7.57,11.68-6,6.58,1.38,10.56,3.59,7.17,9C240,220.24,243.83,246,248.55,258.35Z" transform="translate(-43.09 -157.68)"/><path class="cls-1" d="M375,278.28A64.48,64.48,0,0,0,372.86,262c-3.23-14.07-3.68-28.06,1.72-42,2-5.28,5.13-11-3.7-15-11.13-1.18-15,3.39-15.63,10.63-.68,7.58,2.58,14.82,3.41,22.27.32,2.81,1.87,5.58-.24,9.58-8.21-9.6-10-19.28-9.34-29.48.72-11.11-1-14.35-15.52-11.66-18.34,3.39-18.1,7.26-10.28,20.4,7.37,12.39,6.86,23.45,5.32,37.84-.67,6.19-3.31,12.11-5.09,18.14A16.32,16.32,0,0,0,325.63,297c2.21,3.33,6.19,5.38,11.4,5.36,5.9,0,8.17-3.51,9.32-6.83a23.78,23.78,0,0,0,.91-10.39c-1-8.83-2.69-17.63-3.93-26.45-.4-2.89-2.39-6.09,1.83-9,10.31,13.55,10.44,28.18,12.44,42.53.44,3.11-2.3,7.94,4.79,8.49s10-3.37,11.05-8.11C373.72,291.28,375.47,283,375,278.28Z" transform="translate(-43.09 -157.68)"/><path class="cls-1" d="M319.8,249.6c.85-8.82.78-9.2-3.18-19.78-2.73-7.29-1.65-5.59-4.82-13.44-1.74-4.32-.26-11.83-12.09-11.79-2.84,0-9.64,0-12.07,6.11-2.88,7.25-7,8.27-10.95,19.78-7.23,21.25-4,33.79-4.64,41.74-.59,7.8-2.35,8.83-4.34,16.47-1.93,7.39-.47,11.67,6.79,12.25,6.07.48,18.4,3,16-6.73-6.14-25.3-2.32-32.42,4.83-44a.39.39,0,0,1,.69,0c5.24,11.73,10.56,16.5.19,46.23-2,5.84,11.05,7.11,17.69,5.43,12.88-3.26,4-11.2,3.46-17.85C316.68,275.93,319.1,256.79,319.8,249.6Zm-21.66-13.42c-2.22,0-4-1.38-4-5.13,0-3.94,2.19-7.59,3.79-7.59,2.71,0,4.44,4.93,4.28,7.78C302,233.8,300.69,236.18,298.14,236.18Z" transform="translate(-43.09 -157.68)"/><path class="cls-1" d="M426.34,248.93c.22-8.67.12-9-4.49-19.09-3.17-6.93-2-5.35-5.64-12.79-2-4.1-1.07-11.54-12.62-10.68-2.77.21-9.4.67-11.35,6.81-2.3,7.29-6.27,8.58-9.29,20.09-5.57,21.27-1.58,33.29-1.61,41.1,0,7.66-1.68,8.79-3.08,16.39-1.36,7.35.36,11.44,7.48,11.49,6,0,18.17,1.68,15.17-7.7-7.75-24.28-4.53-31.5,1.64-43.28a.39.39,0,0,1,.68,0c5.93,11.09,11.46,15.38,3.42,45.15-1.57,5.84,11.28,6.16,17.64,4.06,12.33-4.08,3.16-11.22,2.12-17.67C425.14,274.87,426.16,256,426.34,248.93Zm-22.07-11.59c-2.16.16-4-1.06-4.29-4.72-.29-3.85,1.6-7.58,3.16-7.69,2.65-.19,4.67,4.51,4.72,7.3C407.9,234.74,406.76,237.17,404.27,237.34Z" transform="translate(-43.09 -157.68)"/><path class="cls-1" d="M444.38,173.1c-2.52,6.6-5.41,14.23-14.33,15.49a.78.78,0,0,0-.26,1.48c9.59,4.83,12.4,8.52,15,19.58a.78.78,0,0,0,1.5.08c3.87-11.12,7.13-13.69,17.2-19.93a.78.78,0,0,0-.27-1.44c-9.14-1.76-14.22-8.78-16.07-15.12A1.49,1.49,0,0,0,444.38,173.1Z" transform="translate(-43.09 -157.68)"/><path class="cls-1" d="M467.79,158c-.91,6.07-2.9,8.57-9.24,8.76a.32.32,0,0,0-.09.62c6.52,2,8.31,3.64,9,11a.32.32,0,0,0,.63,0c1.42-7.42,3.16-8.71,10.08-11.21a.32.32,0,0,0-.1-.62c-6.7-.23-9.07-2.42-9.64-8.52A.32.32,0,0,0,467.79,158Z" transform="translate(-43.09 -157.68)"/></svg>