<svg id="Layer_1" data-name="Layer 1" xmlns="http://www.w3.org/2000/svg" viewBox="0 0 421.35 141.46"><defs><style>.cls-1{fill:#f7aa05;}.cls-2{fill:#2c8b5a;}</style></defs><path class="cls-1" d="M42.73,292.42c.54-8.58,0-6.3,3.38-17.24.87-2.82,1.31-6.24,5.45-6.77,4.6-.6,4.08,2.93,4.81,5.24,1,3.17,3.19,5.43,7.58,4.72s5.12-4,5-6.87a37,37,0,0,0-7.23-19.61C56.07,244,50.87,236,44.85,228.32c-9-11.39-6-22.11,1.73-32.77,3.84-5.28,9.55-7.7,17.11-6.26,7.8,1.48,14.85,4.56,17,11.05,1.85,5.6,1.4,11.64-3.68,16.53-1.39,1.34-3.45,2.53-6,1.42-2.3-1-2.65-2.71-2.22-4.66,1-4.43,1.74-10-6.19-9.06-6.33.74-6.21,6.33-5.21,10.86,1.65,7.49,7.07,13.4,13.37,18.6,25.31,20.88,24,53.22,16.38,68.8-3.39,6.9-10.11,14.43-19,14.56-6.13.1-11.81.11-18.53-2.47C42.21,312.08,42.87,299,42.73,292.42Z" transform="translate(-39.33 -175.96)"/><path class="cls-1" d="M112.11,276.21c-16.76,8.7-13.46,23.73,5.78,12-13.3,15.89-1.3,22.62,9.07,5.11-5.14,20.52,13.56,20.79,13.37,1.15,4,19.64,14.11,17.09,8.7-1.59,12,17,20.76,8.63,10.47-8.5,12.1,10.85,22.56-1.84,6.79-9.63,20.27-1.21,19.82-10.65,3.92-18.81,18.13-3.5,15.46-15.63-1.81-10.92,16.18-18,1.36-27.62-11.28-12.38,4.81-22.63-4.09-21-12.17-4.46.13-22.16-13.66-25.48-13.38-1.79-7.86-19.82-17.16-17.34-10.3,3.87-15.69-15.26-22.62-4.11-10.34,11.93-17.48-11.75-21.64,3.91-2.6,9.79-20,1.61-19.31,9.54.4,12.29C91.26,270.13,97.13,278,112.11,276.21Z" transform="translate(-39.33 -175.96)"/><path class="cls-2" d="M137.3,237.52c9.95-.41,20,5.42,22.66,19.91,2.59,14.24-6,27-19,27.67-13.65.69-24.68-6-23.85-25.91C117.82,241.68,133.6,237.68,137.3,237.52Z" transform="translate(-39.33 -175.96)"/><path class="cls-1" d="M227.28,299c-3.63,10-23.06,15.87-36.75,11.29-6-2-5.92-5.46-5.26-9,2.64-14.29,2.42-28.67,3.35-43,.72-11.21-.17-22.18-4.46-33.1-4.09-10.42,2-14.88,17.55-14.49,9.62.23,10.21,2.34,6.82,8.12-11.6,19.79-8.68,40.18-3.36,60.53.2.76,1.34,1.41,2.07,2.13,7.61-3.52,6.75-8.41,6.72-13,0-5-.7-10-.56-15,.07-2.5-.5-6.48,3.86-6.73,5.37-.32,5.67,3.94,6.28,6.6,1.6,6.94,2.47,14,3.63,20.93C228.07,282.51,231.7,290.74,227.28,299Z" transform="translate(-39.33 -175.96)"/><path class="cls-1" d="M244.78,268.05c2.94-10.84,1.79-32.13,4.07-39.25a86.81,86.81,0,0,1,2.78-8.64c2.47-5.64,7.86-6.15,14.91-4.12,6.72,1.94,9,4.57,5.56,9.6-13.71,20.05-16.63,41.49-15.71,63.38.25,5.94.51,11.93-2.66,17.6-2,3.67-5.91,5.81-11.83,5.09-6.27-.76-6.55-4.25-5.89-7.57,4.49-22.35-2.56-43.66-11.11-64.89-2.91-7.23-2.15-14.72-1.4-22.14.54-5.31,4.05-7.57,11.68-6,6.58,1.38,10.57,3.58,7.17,9C236.23,229.94,240.06,255.71,244.78,268.05Z" transform="translate(-39.33 -175.96)"/><path class="cls-1" d="M371.2,288a64.46,64.46,0,0,0-2.1-16.27c-3.24-14.08-3.69-28.06,1.71-42,2.05-5.28,5.13-11-3.7-15-11.12-1.18-15,3.39-15.62,10.62-.69,7.59,2.57,14.83,3.41,22.28.31,2.81,1.86,5.58-.24,9.58-8.22-9.6-10-19.29-9.34-29.48.71-11.12-1-14.35-15.52-11.67-18.35,3.4-18.11,7.27-10.29,20.4,7.38,12.39,6.86,23.45,5.32,37.84-.66,6.2-3.31,12.11-5.08,18.15a16.26,16.26,0,0,0,2.11,14.16c2.22,3.34,6.19,5.38,11.4,5.36,5.91,0,8.18-3.51,9.32-6.82a23.81,23.81,0,0,0,.91-10.4c-1-8.83-2.69-17.62-3.93-26.44-.4-2.9-2.38-6.09,1.84-9,10.3,13.55,10.44,28.17,12.44,42.53.43,3.1-2.3,7.94,4.78,8.48s10-3.36,11.05-8.1C370,301,371.7,292.68,371.2,288Z" transform="translate(-39.33 -175.96)"/><path class="cls-1" d="M316,259.3c.86-8.82.78-9.19-3.18-19.77-2.73-7.29-1.65-5.6-4.82-13.44-1.74-4.33-.25-11.83-12.09-11.8-2.84,0-9.64,0-12.07,6.11-2.88,7.25-7,8.28-10.94,19.78-7.24,21.25-4.05,33.79-4.65,41.74s-2.35,8.84-4.34,16.47c-1.92,7.39-.47,11.68,6.79,12.25,6.08.48,18.41,3,16-6.73-6.14-25.3-2.32-32.41,4.83-44a.4.4,0,0,1,.69.05c5.24,11.72,10.57,16.5.2,46.23-2,5.83,11,7.1,17.68,5.42,12.88-3.26,4.05-11.2,3.46-17.84C312.91,285.63,315.34,266.49,316,259.3Zm-21.65-13.41c-2.22,0-4-1.38-4-5.13,0-3.94,2.19-7.6,3.78-7.6,2.72,0,4.44,4.94,4.28,7.78C298.26,243.5,296.92,245.89,294.38,245.89Z" transform="translate(-39.33 -175.96)"/><path class="cls-1" d="M422.57,258.64c.22-8.68.12-9-4.48-19.1-3.17-6.93-2-5.35-5.64-12.79-2-4.1-1.08-11.53-12.63-10.67-2.76.2-9.4.67-11.34,6.81-2.31,7.28-6.28,8.57-9.3,20.08-5.57,21.27-1.57,33.29-1.6,41.1s-1.68,8.8-3.09,16.4c-1.36,7.35.36,11.43,7.49,11.49,5.95,0,18.16,1.67,15.17-7.7-7.76-24.28-4.53-31.5,1.63-43.29a.39.39,0,0,1,.68,0c5.94,11.08,11.46,15.37,3.43,45.14-1.58,5.85,11.27,6.17,17.63,4.06,12.34-4.08,3.16-11.22,2.12-17.67C421.37,284.58,422.4,265.71,422.57,258.64Zm-22.06-11.59c-2.17.15-4-1.07-4.3-4.73-.29-3.85,1.6-7.57,3.16-7.68,2.65-.19,4.67,4.51,4.72,7.3C404.13,244.44,403,246.87,400.51,247.05Z" transform="translate(-39.33 -175.96)"/><path class="cls-1" d="M434.88,188.57c-2.06,5.4-4.42,11.64-11.73,12.67a.65.65,0,0,0-.21,1.22c7.84,3.94,10.14,7,12.31,16a.64.64,0,0,0,1.23.07c3.17-9.09,5.83-11.19,14.07-16.3a.64.64,0,0,0-.23-1.18,17.15,17.15,0,0,1-13.14-12.36A1.21,1.21,0,0,0,434.88,188.57Z" transform="translate(-39.33 -175.96)"/><path class="cls-1" d="M452,176.18c-.74,5-2.37,7-7.56,7.16a.26.26,0,0,0-.07.51c5.33,1.65,6.8,3,7.35,9a.26.26,0,0,0,.52,0c1.16-6.07,2.59-7.13,8.24-9.17a.26.26,0,0,0-.08-.5c-5.47-.19-7.41-2-7.88-7A.26.26,0,0,0,452,176.18Z" transform="translate(-39.33 -175.96)"/></svg>